<?xml version="1.0" encoding="UTF-8"?>
<svg version="1.1" xmlns="http://www.w3.org/2000/svg" width="290" height="269">
<path d="M0 0 C1.01513672 0.72123047 1.01513672 0.72123047 2.05078125 1.45703125 C10.98371287 8.33004072 15.98090159 19.13249972 18 30 C19.90420285 45.74270561 15.78018298 60.79671732 7 74 C5.07792817 76.41681925 3.05880206 78.69610246 1 81 C1 81.66 1 82.32 1 83 C1.78375 83.7425 2.5675 84.485 3.375 85.25 C6.98525674 89.03217373 7.93246816 92.2055276 8.12841797 97.41235352 C8.06098389 99.25204712 8.06098389 99.25204712 7.9921875 101.12890625 C6.85760525 117.65466476 6.85760525 117.65466476 12.7512207 132.27978516 C14.82662553 134.23413822 16.96865333 136.00403968 19.27441406 137.68017578 C22.3669298 140.04550404 24.97970927 142.90092968 27.6875 145.6875 C28.69046103 146.67153724 29.69428812 147.65469301 30.69921875 148.63671875 C33.3225515 151.33131351 33.91006428 152.17259138 34.3125 155.875 C34 159 34 159 32.58203125 160.8984375 C28.85473233 163.93215432 24.72638119 165.75615817 20.375 167.75 C19.50359375 168.16121094 18.6321875 168.57242188 17.734375 168.99609375 C11.28745328 172 11.28745328 172 9 172 C9.03480469 172.72445312 9.06960938 173.44890625 9.10546875 174.1953125 C9.38950409 184.33943187 9.38950409 184.33943187 6 189 C0.85537459 193.9843352 -4.80264864 198.10242053 -10.75 202.0625 C-12.43426271 203.19953054 -14.11783425 204.33758544 -15.80078125 205.4765625 C-16.66010254 206.05696289 -17.51942383 206.63736328 -18.40478516 207.23535156 C-22.61091336 210.09536047 -26.77487538 213.014684 -30.9375 215.9375 C-31.75742432 216.51250244 -32.57734863 217.08750488 -33.42211914 217.67993164 C-35.94869678 219.45241013 -38.47445077 221.22605653 -41 223 C-44.5615973 225.50128929 -48.12426977 228.00103765 -51.6875 230.5 C-52.48857178 231.06323975 -53.28964355 231.62647949 -54.11499023 232.20678711 C-58.02245948 234.94704245 -61.94446702 237.66519988 -65.89453125 240.34375 C-66.96924683 241.07368164 -66.96924683 241.07368164 -68.06567383 241.81835938 C-73.5538518 245.17097598 -80.52479792 244.77462969 -86.62854004 243.41409302 C-89.31450784 242.57693282 -91.94259255 241.64459471 -94.578125 240.66015625 C-95.5677272 240.3065654 -96.55732941 239.95297455 -97.57691956 239.58866882 C-100.80751762 238.42980918 -104.02856373 237.24656334 -107.25 236.0625 C-109.50686021 235.24686172 -111.76427474 234.43275578 -114.0222168 233.62011719 C-118.68740026 231.93797306 -123.34873593 230.24573145 -128.00732422 228.54541016 C-134.76741882 226.08001085 -141.54036487 223.65162632 -148.31640625 221.23046875 C-152.48225779 219.73833532 -156.64741273 218.24426514 -160.8125 216.75 C-162.27496155 216.22637375 -162.27496155 216.22637375 -163.76696777 215.69216919 C-169.09156577 213.78235237 -174.40420629 211.84519732 -179.69976807 209.85620117 C-181.18504585 209.30334537 -182.67408392 208.76044214 -184.16741943 208.22973633 C-191.39419307 205.65782023 -197.27752732 203.45820747 -201.07617188 196.48291016 C-202.77428161 191.91901586 -203.07713609 187.52432208 -203.25 182.6875 C-203.31171387 181.56029541 -203.37342773 180.43309082 -203.43701172 179.27172852 C-203.57303053 176.68414874 -203.69757242 174.09844393 -203.80566406 171.50976562 C-203.98161972 167.31830927 -204.19286016 163.12909606 -204.40820312 158.9394989 C-204.65565243 154.10591173 -204.89183055 149.27179498 -205.125 144.4375 C-205.16983521 143.50900238 -205.21467041 142.58050476 -205.26086426 141.62387085 C-205.83878826 129.40666002 -206.11817129 117.23072848 -206 105 C-207.8871875 104.443125 -207.8871875 104.443125 -209.8125 103.875 C-224.35828946 98.9504067 -235.97465672 89.81346833 -242.9921875 76.0546875 C-247.25256231 66.68186291 -247.65627317 54.79739758 -244.375 45.0625 C-242.27841979 40.10427171 -239.61136132 35.98221016 -236 32 C-235.54496094 31.49082031 -235.08992187 30.98164062 -234.62109375 30.45703125 C-230.67344816 26.61245734 -225.92962637 24.22659059 -221.0625 21.75 C-220.39428223 21.40839844 -219.72606445 21.06679688 -219.03759766 20.71484375 C-213.12245064 17.81857084 -207.142912 16.06767495 -200.5625 15.375 C-199.90378906 15.30023438 -199.24507812 15.22546875 -198.56640625 15.1484375 C-175.0264256 13.78691655 -154.20795086 21.51792277 -133.50146484 31.94897461 C-132.4852002 32.4569458 -131.46893555 32.96491699 -130.421875 33.48828125 C-129.06980957 34.17724487 -129.06980957 34.17724487 -127.69042969 34.88012695 C-124.78880202 36.08790972 -122.10852215 36.59931435 -119 37 C-118.65388672 35.33324219 -118.65388672 35.33324219 -118.30078125 33.6328125 C-114.53149171 16.1405534 -108.0029913 4.21890179 -92.890625 -6.25 C-63.85238775 -23.82990579 -26.63494214 -19.86539557 0 0 Z " fill="#020101" transform="translate(249,22)"/>
<path d="M0 0 C2.74392743 0.98486351 5.44447518 2.06129601 8.14453125 3.16015625 C8.91431808 3.46948593 9.68410492 3.77881561 10.47721863 4.09751892 C12.92396766 5.08179468 15.36824344 6.0720531 17.8125 7.0625 C19.47575158 7.73281871 21.13916137 8.402745 22.80273438 9.07226562 C26.87033626 10.71030375 30.93573133 12.35370995 35 14 C35.26624315 21.37380084 35.52725372 28.74777303 35.78230286 36.12196922 C35.90099355 39.54933873 36.02122141 42.97663708 36.14550781 46.40380859 C36.43081661 54.31967216 36.67469158 62.23521135 36.88061523 70.15353394 C36.99836291 73.94725464 37.1762985 77.73467539 37.36132812 81.52563477 C37.44065895 83.85947538 37.51822343 86.19337692 37.59375 88.52734375 C37.66118408 89.58509003 37.72861816 90.6428363 37.7980957 91.7326355 C37.89306167 95.96159955 37.94334492 98.80504514 35.25999451 102.20410156 C31.5301848 105.46781107 27.49353715 108.03119317 22.97265625 110.0703125 C16.63785332 113.10222974 10.84057991 116.77227628 4.9375 120.5625 C2.90954288 121.83001367 0.87961114 123.09437386 -1.15234375 124.35546875 C-5.68683023 127.17882826 -10.21398697 130.01334229 -14.73120117 132.86425781 C-16.30406434 133.85690211 -17.87840465 134.84721044 -19.4543457 135.83496094 C-23.03148027 138.08426377 -26.56654325 140.36914909 -30.0390625 142.77734375 C-30.98434814 143.42147217 -30.98434814 143.42147217 -31.94873047 144.07861328 C-33.61669361 145.22118386 -35.26998181 146.385098 -36.921875 147.55078125 C-43.45099261 150.62476937 -49.94615287 147.14463285 -56.35546875 144.859375 C-57.47566406 144.45203125 -58.59585938 144.0446875 -59.75 143.625 C-60.88566406 143.22539062 -62.02132812 142.82578125 -63.19140625 142.4140625 C-64.27808594 142.0221875 -65.36476563 141.6303125 -66.484375 141.2265625 C-67.47147461 140.87158691 -68.45857422 140.51661133 -69.47558594 140.15087891 C-72.11687277 138.94671777 -73.28490853 138.31417085 -75 136 C-75.47465515 132.90393066 -75.47465515 132.90393066 -75.6159668 129.04101562 C-75.64566559 128.33648254 -75.67536438 127.63194946 -75.70596313 126.90606689 C-75.80081134 124.57310204 -75.87514485 122.23995947 -75.94921875 119.90625 C-76.01099845 118.27774563 -76.07398967 116.64928682 -76.13813782 115.02087402 C-76.30383422 110.72484311 -76.4518982 106.42837129 -76.59667969 102.1315918 C-76.71677256 98.65180396 -76.84898819 95.1725296 -76.98198223 91.69321442 C-77.68426698 73.30694203 -77.68426698 73.30694203 -77.89016724 65.82061768 C-77.95916501 63.42047684 -78.04621163 61.02071681 -78.15939331 58.62225342 C-78.19195221 57.64508362 -78.22451111 56.66791382 -78.25805664 55.66113281 C-78.29459854 54.83832825 -78.33114044 54.01552368 -78.36878967 53.16778564 C-77.87311585 50.25416121 -76.61459366 49.18094912 -74.421875 47.265625 C-72.89026437 46.2217045 -71.33139913 45.21683914 -69.75 44.25 C-68.97269531 43.71890625 -68.19539063 43.1878125 -67.39453125 42.640625 C-61.70647629 38.90692738 -61.70647629 38.90692738 -58.87255859 39.28027344 C-56.52894303 40.18105293 -54.84198508 41.44436161 -52.875 43 C-50.07102267 45.21055182 -50.07102267 45.21055182 -47 47 C-47 46.34 -47 45.68 -47 45 C-47.70125 44.773125 -48.4025 44.54625 -49.125 44.3125 C-52.69343613 42.68343133 -55.06514511 40.59359269 -58 38 C-54.32531184 33.96466605 -50.00461832 30.99320774 -45.5625 27.875 C-44.81162109 27.33746094 -44.06074219 26.79992187 -43.28710938 26.24609375 C-41.2175051 24.78626734 -39.11951447 23.38590935 -37 22 C-36.16984375 21.42765625 -35.3396875 20.8553125 -34.484375 20.265625 C-30.70282919 19.86130878 -28.79049663 21.82515673 -25.87304688 24.08984375 C-25.15181641 24.67894531 -24.43058594 25.26804687 -23.6875 25.875 C-22.94693359 26.45636719 -22.20636719 27.03773437 -21.44335938 27.63671875 C-19.61545192 29.07545881 -17.80255094 30.52970629 -16 32 C-19.66577975 28.17148703 -23.72739581 25.08385373 -27.953125 21.90234375 C-28.62859375 21.27457031 -29.3040625 20.64679688 -30 20 C-30 19.01 -30 18.02 -30 17 C-28.56640625 15.65307617 -28.56640625 15.65307617 -26.5625 14.29296875 C-25.83160156 13.78830078 -25.10070312 13.28363281 -24.34765625 12.76367188 C-23.57292969 12.24353516 -22.79820313 11.72339844 -22 11.1875 C-20.49916995 10.16136923 -18.99916701 9.13402768 -17.5 8.10546875 C-16.75234375 7.60063965 -16.0046875 7.09581055 -15.234375 6.57568359 C-12.33854858 4.53354377 -9.62148838 2.29133688 -6.921875 -0.00268555 C-4.17022841 -1.43059159 -2.95327831 -0.91209915 0 0 Z " fill="#FCD66A" transform="translate(136,75)"/>
<path d="M0 0 C7.27840786 5.81997453 12.13266604 13.91264253 13.2734375 23.234375 C13.8357021 37.1612367 8.24831831 50.59195075 -0.7578125 61.0390625 C-3.88535658 64.11050713 -3.88535658 64.11050713 -6 65 C-11.16444551 64.54699242 -15.46042485 63.22858214 -20.24609375 61.27734375 C-21.23005882 60.87993736 -21.23005882 60.87993736 -22.23390198 60.47450256 C-24.30482908 59.63614841 -26.37114324 58.78704777 -28.4375 57.9375 C-29.85061925 57.36321274 -31.26402832 56.78963809 -32.67773438 56.21679688 C-36.12187708 54.81941625 -39.56197263 53.41237023 -43 52 C-41.16575989 48.14142959 -38.75099191 44.91197948 -36.125 41.5625 C-35.69058594 41.00240234 -35.25617188 40.44230469 -34.80859375 39.86523438 C-34.37933594 39.31287109 -33.95007813 38.76050781 -33.5078125 38.19140625 C-33.08814209 37.65112793 -32.66847168 37.11084961 -32.23608398 36.55419922 C-31.08291001 35.10424751 -29.87713148 33.69656971 -28.66796875 32.29296875 C-26.65361403 30.03303045 -26.65361403 30.03303045 -27.1875 26.75 C-27.72884516 24.11189753 -27.72884516 24.11189753 -29 23 C-32.33146192 22.50396797 -32.33146192 22.50396797 -36 23 C-38.75032087 25.04531279 -38.75032087 25.04531279 -41 27.9375 C-41.84691406 28.93652344 -42.69382813 29.93554688 -43.56640625 30.96484375 C-46.25912395 34.32317706 -48.94850984 37.67810651 -51.52734375 41.125 C-52.91720638 42.89458637 -54.39709799 44.42572621 -56 46 C-64.81640053 43.63888648 -73.18634894 40.24114099 -81.625 36.8125 C-83.02457627 36.24764205 -84.42431479 35.68318594 -85.82421875 35.11914062 C-89.21802673 33.750716 -92.60961443 32.37688565 -96 31 C-96.47733637 19.04402159 -94.8992872 10.69990475 -86.8125 1.515625 C-84.63074981 -0.49946372 -82.41500406 -2.2737971 -80 -4 C-79.02740234 -4.71736328 -79.02740234 -4.71736328 -78.03515625 -5.44921875 C-72.77815518 -9.02913972 -67.04194829 -11.11080291 -61 -13 C-60.27039063 -13.22816406 -59.54078125 -13.45632812 -58.7890625 -13.69140625 C-38.51507661 -19.08021663 -16.4521437 -12.03371648 0 0 Z " fill="#FCFCFC" transform="translate(241,33)"/>
<path d="M0 0 C6.14966756 1.76470778 12.14068141 3.70271449 18.0625 6.125 C18.72443359 6.38925781 19.38636719 6.65351562 20.06835938 6.92578125 C24.86351657 8.86351657 24.86351657 8.86351657 26 10 C26.20147035 12.61240736 26.33775158 15.20054293 26.4309082 17.81762695 C26.46318008 18.63730453 26.49545197 19.45698212 26.52870178 20.30149841 C26.81212195 27.89863011 26.98297879 35.49832936 27.11837482 43.09940815 C27.21131359 48.20546117 27.34183197 53.30428304 27.5637207 58.40649414 C28.9610925 91.35018964 28.9610925 91.35018964 24.10714722 98.97235107 C19.55264575 103.31471698 14.51644777 105.39945657 8.54414368 107.13572693 C4.3876038 108.5477484 1.00571805 110.99632894 -2.5625 113.5 C-3.94901283 114.41183941 -5.33802083 115.31990615 -6.73046875 116.22265625 C-7.42575684 116.67656738 -8.12104492 117.13047852 -8.83740234 117.59814453 C-13.44479548 120.58478388 -18.0916455 123.50996284 -22.74731445 126.4206543 C-26.93389358 129.04160451 -31.07853753 131.70785784 -35.1796875 134.4609375 C-36.02869629 135.02176025 -36.87770508 135.58258301 -37.75244141 136.16040039 C-39.37713875 137.23511466 -40.99208886 138.32476226 -42.59521484 139.43139648 C-46.11734293 141.73930307 -48.17748967 142.98884732 -52.45703125 143.046875 C-56.89136162 141.73662082 -61.15636444 140.17962204 -65.4375 138.4375 C-66.26443359 138.10814453 -67.09136719 137.77878906 -67.94335938 137.43945312 C-69.96498093 136.63314164 -71.98288449 135.81751877 -74 135 C-70.76193622 132.33480771 -67.49507759 129.95603074 -63.9296875 127.75 C-62.96095703 127.14800781 -61.99222656 126.54601562 -60.99414062 125.92578125 C-59.96482422 125.29027344 -58.93550781 124.65476562 -57.875 124 C-55.69507273 122.64621934 -53.51538778 121.29204842 -51.3359375 119.9375 C-50.25795898 119.26847656 -49.17998047 118.59945312 -48.06933594 117.91015625 C-43.1156565 114.82730643 -38.18644097 111.70619762 -33.26123047 108.578125 C-28.72676108 105.70387986 -24.1699636 102.86989345 -19.59375 100.0625 C-18.49998047 99.38832031 -17.40621094 98.71414062 -16.27929688 98.01953125 C-14.13347586 96.69804291 -11.98386644 95.38268164 -9.83007812 94.07421875 C-8.85490234 93.47222656 -7.87972656 92.87023437 -6.875 92.25 C-6.00617188 91.71890625 -5.13734375 91.1878125 -4.2421875 90.640625 C-1.73741633 88.80786561 -0.39693639 87.78960949 1 85 C1.34522562 81.79217218 1.20610096 78.62923756 1.07421875 75.41015625 C1.03448944 73.96901711 1.03448944 73.96901711 0.99395752 72.49876404 C0.93552334 70.42931707 0.87022435 68.3600549 0.79879761 66.29101562 C0.61167012 60.86283047 0.47308704 55.43335227 0.328125 50.00390625 C0.28225502 48.36387131 0.28225502 48.36387131 0.23545837 46.69070435 C-0.04558874 36.29278062 -0.09641137 25.90110124 -0.0625 15.5 C-0.06045563 14.69974396 -0.05841125 13.89948792 -0.05630493 13.07498169 C-0.04471245 8.71660309 -0.02625007 4.35831921 0 0 Z " fill="#FBD569" transform="translate(184,95)"/>
<path d="M0 0 C0 0.66 0 1.32 0 2 C-1.40527344 3.20507812 -1.40527344 3.20507812 -3.359375 4.53125 C-4.41511719 5.25248047 -4.41511719 5.25248047 -5.4921875 5.98828125 C-6.23726563 6.48714844 -6.98234375 6.98601562 -7.75 7.5 C-8.47960937 7.99886719 -9.20921875 8.49773437 -9.9609375 9.01171875 C-13.23455675 11.23182781 -16.42722632 13.28808732 -20 15 C-24.87709781 10.36675708 -24.87709781 10.36675708 -25.2265625 6.48046875 C-25.16034455 4.74097424 -25.04785185 3.0024444 -24.8828125 1.26953125 C-24.79854151 -1.05633574 -24.79854151 -1.05633574 -26.2734375 -2.78125 C-29.09812322 -4.7751458 -31.65997368 -4.29821664 -35 -4 C-35.99 -3.34 -36.98 -2.68 -38 -2 C-38.69105265 3.19660996 -38.69105265 3.19660996 -36.75 7.76953125 C-34.46585996 9.37556721 -33.35465629 9.10401686 -30.625 8.75 C-26.48247446 8.56078187 -26.48247446 8.56078187 -24.30078125 10.546875 C-23.06380904 12.31904149 -21.97777912 14.07392253 -21 16 C-26.33585052 20.26303401 -31.7850298 24.36487456 -37.3125 28.375 C-37.91078613 28.81569824 -38.50907227 29.25639648 -39.12548828 29.71044922 C-41.99854428 31.77785479 -44.43799838 33.52506645 -48 34 C-55.73218271 25.73277786 -55.73218271 25.73277786 -56.390625 21.47265625 C-56.29957551 19.95263562 -56.18393901 18.43380631 -56.0390625 16.91796875 C-55.81847473 14.76439951 -55.81847473 14.76439951 -57.625 12.4375 C-60.65046776 10.60629583 -62.51565662 10.62932517 -66 11 C-66.99 11.33 -67.98 11.66 -69 12 C-69.10824843 13.6026782 -69.18570645 15.20745748 -69.25 16.8125 C-69.31960937 18.15248047 -69.31960937 18.15248047 -69.390625 19.51953125 C-69.22392386 22.12124142 -69.22392386 22.12124142 -67.21875 23.84765625 C-64.85720293 25.33096783 -64.85720293 25.33096783 -61.25 24.625 C-58.03713611 24.44382346 -57.19295386 24.83264206 -54.703125 26.9921875 C-52.70407907 29.26769723 -50.81084315 31.57269961 -49 34 C-51.34238578 40.33908153 -58.19348462 44.16899533 -64 47 C-67.94832708 47.12826486 -70.58477674 45.88465497 -74 44 C-74.77085938 43.63648438 -75.54171875 43.27296875 -76.3359375 42.8984375 C-85.62200212 38.23955866 -93.00882423 31.57705155 -96.75 21.75 C-98.87417268 14.70482728 -99.04428424 8.60043108 -96 1.8125 C-90.36319091 -8.23298659 -81.2834671 -12.51423438 -70.7265625 -16.1171875 C-46.38647336 -21.88328828 -21.40438148 -10.52622049 0 0 Z " fill="#FBFBFB" transform="translate(114,68)"/>
<path d="M0 0 C2.98082734 1.14154614 5.9593646 2.28895118 8.9375 3.4375 C9.78763672 3.76298828 10.63777344 4.08847656 11.51367188 4.42382812 C12.72700195 4.89272461 12.72700195 4.89272461 13.96484375 5.37109375 C14.7137085 5.65911865 15.46257324 5.94714355 16.23413086 6.24389648 C18 7 18 7 19 8 C19.14347743 9.65403095 19.22026079 11.31389964 19.27026367 12.97338867 C19.30557693 14.03713211 19.3408902 15.10087555 19.37727356 16.19685364 C19.41132797 17.36294662 19.44538239 18.52903961 19.48046875 19.73046875 C19.75680021 28.48792404 20.10769861 37.23053028 20.60940552 45.97805786 C20.86627028 50.85725955 21.02818982 55.73719907 21.17407227 60.62084961 C21.26729188 63.10687028 21.39793744 65.59173679 21.5637207 68.07397461 C22.87003893 88.25166789 22.87003893 88.25166789 18.12728882 94.44580078 C13.48311387 98.74297929 8.26036755 101.73160343 2.64428711 104.57981873 C-1.7769187 106.95433913 -5.76248617 109.92494714 -9.8125 112.875 C-18.26882591 118.79817651 -26.74263501 124.6960562 -35.22387695 130.58349609 C-36.13613037 131.21723145 -37.04838379 131.8509668 -37.98828125 132.50390625 C-38.85163086 133.10106445 -39.71498047 133.69822266 -40.60449219 134.31347656 C-42.74279661 135.81891959 -44.82475227 137.37993755 -46.91015625 138.95703125 C-50.52552862 141.34747341 -52.23438634 141.45593931 -56.37890625 140.73046875 C-61.73959442 139.23650647 -66.87272056 137.14759309 -72 135 C-72 134.01 -72 133.02 -72 132 C-70.09838867 130.47290039 -70.09838867 130.47290039 -67.41796875 128.84765625 C-66.43272217 128.24219971 -65.44747559 127.63674316 -64.43237305 127.01293945 C-62.82616089 126.04747192 -62.82616089 126.04747192 -61.1875 125.0625 C-58.96847119 123.70358018 -56.7497243 122.3441999 -54.53125 120.984375 C-53.42265625 120.30955078 -52.3140625 119.63472656 -51.171875 118.93945312 C-46.81493763 116.27538982 -42.4984762 113.55008699 -38.1875 110.8125 C-36.66291022 109.84741955 -35.13817098 108.88257518 -33.61328125 107.91796875 C-32.86256348 107.44278809 -32.1118457 106.96760742 -31.33837891 106.47802734 C-28.86685313 104.91584139 -26.39269286 103.35789516 -23.91796875 101.80078125 C-23.07403564 101.26928467 -22.23010254 100.73778809 -21.3605957 100.19018555 C-19.76724599 99.18684943 -18.17337957 98.18433313 -16.57885742 97.18286133 C-15.15324411 96.28443695 -13.73891142 95.36772977 -12.33938599 94.42918396 C-10 93 -10 93 -7.64335632 92.10479736 C-4.63421818 90.7550769 -3.05361048 89.61140818 -1 87 C0.37977387 80.48279299 0.18806007 74.0186248 0.09765625 67.3828125 C0.10331116 65.44081113 0.1129244 63.4988176 0.12632751 61.55685425 C0.1509235 56.45666653 0.12186495 51.35815024 0.08154297 46.25811768 C0.04988595 41.04962428 0.06908983 35.84134401 0.08398438 30.6328125 C0.10570385 20.42144356 0.07072946 10.21111786 0 0 Z " fill="#F9D368" transform="translate(223,110)"/>
<path d="M0 0 C0.495 0.99 0.495 0.99 1 2 C2.87076463 2.73936063 2.87076463 2.73936063 5.1875 3.3125 C11.91344385 5.20630712 18.43890001 7.60812925 25 10 C20.50690797 13.8407208 15.59555312 16.81130164 10.5625 19.875 C2.95901618 24.54153009 -4.60546276 29.2618161 -12.125 34.0625 C-13.03258057 34.64169189 -13.94016113 35.22088379 -14.87524414 35.81762695 C-16.68834863 36.97471757 -18.50141866 38.13186217 -20.31445312 39.2890625 C-24.66086605 42.05812266 -29.01719946 44.81140682 -33.375 47.5625 C-34.1292627 48.03888916 -34.88352539 48.51527832 -35.66064453 49.00610352 C-37.08379808 49.90423959 -38.51028219 50.79712512 -39.94042969 51.68408203 C-41.34126016 52.57911241 -42.71689688 53.51456061 -44.06738281 54.48388672 C-47.42355043 56.82418123 -49.23508522 57.99211428 -53.41015625 58.03515625 C-57.8703513 56.74902819 -62.14013017 55.18622825 -66.4375 53.4375 C-67.26443359 53.10814453 -68.09136719 52.77878906 -68.94335938 52.43945312 C-70.96498093 51.63314164 -72.98288449 50.81751877 -75 50 C-71.76193622 47.33480771 -68.49507759 44.95603074 -64.9296875 42.75 C-63.96095703 42.14800781 -62.99222656 41.54601562 -61.99414062 40.92578125 C-60.96482422 40.29027344 -59.93550781 39.65476563 -58.875 39 C-56.69507273 37.64621934 -54.51538778 36.29204842 -52.3359375 34.9375 C-51.25795898 34.26847656 -50.17998047 33.59945312 -49.06933594 32.91015625 C-44.1156565 29.82730643 -39.18644097 26.70619762 -34.26123047 23.578125 C-29.72676108 20.70387986 -25.1699636 17.86989345 -20.59375 15.0625 C-19.49998047 14.38832031 -18.40621094 13.71414062 -17.27929688 13.01953125 C-15.13347586 11.69804291 -12.98386644 10.38268164 -10.83007812 9.07421875 C-9.36731445 8.17123047 -9.36731445 8.17123047 -7.875 7.25 C-7.00617188 6.71890625 -6.13734375 6.1878125 -5.2421875 5.640625 C-2.95966079 3.9704835 -1.55858885 2.34297671 0 0 Z " fill="#C77F3E" transform="translate(185,180)"/>
<path d="M0 0 C5.28 2.64 10.56 5.28 16 8 C5.82585644 16.13931485 -4.80057952 23.61100859 -15.57177734 30.93334961 C-21.66379836 35.076292 -27.71673636 39.27196485 -33.75 43.5 C-34.98206177 44.36298706 -34.98206177 44.36298706 -36.23901367 45.2434082 C-37.02123291 45.792146 -37.80345215 46.34088379 -38.609375 46.90625 C-39.35525879 47.42719238 -40.10114258 47.94813477 -40.86962891 48.48486328 C-42.25743997 49.47188545 -43.6306254 50.47990795 -44.98583984 51.51123047 C-48.18869629 53.93319352 -50.09741479 55.31286568 -54.125 55.125 C-60.35017288 54.03532503 -66.19868952 51.42991521 -72 49 C-72 48.01 -72 47.02 -72 46 C-70.09838867 44.47290039 -70.09838867 44.47290039 -67.41796875 42.84765625 C-66.43272217 42.24219971 -65.44747559 41.63674316 -64.43237305 41.01293945 C-62.82616089 40.04747192 -62.82616089 40.04747192 -61.1875 39.0625 C-58.96847119 37.70358018 -56.7497243 36.3441999 -54.53125 34.984375 C-53.42265625 34.30955078 -52.3140625 33.63472656 -51.171875 32.93945312 C-46.81494028 30.27539144 -42.49839878 27.55020542 -38.1875 24.8125 C-36.66163486 23.8460754 -35.13559363 22.87992876 -33.609375 21.9140625 C-32.48305664 21.2010498 -32.48305664 21.2010498 -31.33398438 20.47363281 C-28.87703635 18.92236312 -26.41555262 17.37849273 -23.953125 15.8359375 C-15.82519109 10.73773451 -7.78397372 5.61466957 0 0 Z " fill="#C77F3E" transform="translate(223,196)"/>
<path d="M0 0 C1.42627293 0.64585944 2.84712908 1.30477193 4.25 2 C-0.37602201 5.93642867 -5.4356315 9.08251412 -10.5625 12.3125 C-11.52518799 12.92206543 -12.48787598 13.53163086 -13.47973633 14.15966797 C-22.61092764 19.93301331 -31.77588373 25.65247924 -40.94140625 31.37109375 C-46.42805076 34.79602361 -51.90508053 38.23592757 -57.375 41.6875 C-58.1383667 42.16848145 -58.9017334 42.64946289 -59.68823242 43.14501953 C-60.40213135 43.59603027 -61.11603027 44.04704102 -61.8515625 44.51171875 C-62.51857178 44.93243652 -63.18558105 45.3531543 -63.87280273 45.78662109 C-65.63859585 46.92799081 -67.35443687 48.12302062 -69.07421875 49.33203125 C-71.75 51 -71.75 51 -74.9375 51 C-80.00956678 49.66962183 -84.86578924 47.89892462 -89.75 46 C-86.88572815 42.9271504 -84.00826501 40.75838074 -80.41015625 38.6015625 C-79.35739502 37.96436279 -78.30463379 37.32716309 -77.2199707 36.6706543 C-76.09550537 35.99558838 -74.97104004 35.32052246 -73.8125 34.625 C-71.44986532 33.19151125 -69.09134325 31.75137772 -66.734375 30.30859375 C-66.14255936 29.94637222 -65.55074371 29.5841507 -64.94099426 29.21095276 C-52.43764438 21.53030051 -40.2131543 13.35903812 -28.5402832 4.46166992 C-19.34014141 -2.48609329 -10.92707372 -4.36151664 0 0 Z " fill="#C9813F" transform="translate(167.75,173)"/>
<path d="M0 0 C2.4375 1.375 2.4375 1.375 4 4 C4.0625 6.31640625 4.0625 6.31640625 3.9375 8.9375 C3.75073342 13.02226589 3.73209111 13.65453853 6.375 17.0625 C8.81348799 18.97813615 8.81348799 18.97813615 11 20 C11.27972656 20.58265625 11.55945313 21.1653125 11.84765625 21.765625 C15.95412648 29.72800117 24.70805942 35.51458864 31.9453125 40.40625 C32.62335938 40.9321875 33.30140625 41.458125 34 42 C34 42.66 34 43.32 34 44 C29.91706804 42.14833018 26.76180829 39.48447567 23.31640625 36.65625 C19.95765865 34.13925297 19.95765865 34.13925297 16 33 C12.90272983 34.48848033 10.27771112 36.53492436 7.5625 38.625 C6.08499455 39.72183811 4.60713637 40.81820124 3.12890625 41.9140625 C2.07920654 42.70538574 2.07920654 42.70538574 1.00830078 43.51269531 C-1.60002465 45.44436544 -4.27879018 47.2318605 -7 49 C-4.51640574 51.62551393 -2.29752806 53.82148316 0.8125 55.6875 C1.534375 56.120625 2.25625 56.55375 3 57 C3 57.66 3 58.32 3 59 C-3.40567956 56.81860642 -7.91823674 52.32307748 -13 48 C-13.72960937 47.40703125 -14.45921875 46.8140625 -15.2109375 46.203125 C-19.1115607 42.96545357 -22.02291497 39.67839231 -25 35.5625 C-27.44836763 32.13871839 -27.44836763 32.13871839 -31.10546875 30.50390625 C-33.07393231 30.61839475 -35.03767954 30.80698487 -37 31 C-40 29.5 -40 29.5 -42 27 C-42.64918137 24.19645566 -42.61559954 21.80759417 -42 19 C-40.375 16.5 -40.375 16.5 -38 15 C-34.00343438 14.2347002 -32.51051929 14.65595439 -29.125 16.9375 C-26.84363266 20.22535293 -26.81481711 20.5601161 -27.125 24.25 C-27.50773251 29.67204386 -24.95179703 32.37737844 -21.53125 36.34765625 C-21.0259375 36.89292969 -20.520625 37.43820313 -20 38 C-16.67485404 37.37840319 -14.5386863 36.17899362 -11.8125 34.19921875 C-11.03132813 33.63396484 -10.25015625 33.06871094 -9.4453125 32.48632812 C-8.63835937 31.89271484 -7.83140625 31.29910156 -7 30.6875 C-5.78957031 29.81448242 -5.78957031 29.81448242 -4.5546875 28.92382812 C-0.77067712 26.16699548 2.8369224 23.48110442 6 20 C4.60910963 17.3183856 4.60910963 17.3183856 2 15 C-0.16735857 14.75381491 -0.16735857 14.75381491 -2.5 14.9375 C-6.73710067 15.15389229 -6.73710067 15.15389229 -9.5625 13.5 C-11.74510377 9.70416736 -11.55302077 7.35503854 -11 3 C-8.06403859 -0.7580306 -4.50318499 -0.56289812 0 0 Z " fill="#040302" transform="translate(86,63)"/>
<path d="M0 0 C0.33 6.27 0.66 12.54 1 19 C-5.27 19 -11.54 19 -18 19 C-18.33 13.06 -18.66 7.12 -19 1 C-12.55325517 0.35532552 -6.51387239 0 0 0 Z " fill="#080703" transform="translate(140,115)"/>
<path d="M0 0 C2.3925 0.020625 4.785 0.04125 7.25 0.0625 C7.58 6.0025 7.91 11.9425 8.25 18.0625 C1.85046458 18.88824651 -4.29698539 19.15338753 -10.75 19.0625 C-11.08 13.1225 -11.41 7.1825 -11.75 1.0625 C-7.71231248 0.05307812 -4.11229751 -0.05013915 0 0 Z " fill="#090804" transform="translate(79.75,144.9375)"/>
<path d="M0 0 C2.4375 1.375 2.4375 1.375 4 4 C4.0625 6.31640625 4.0625 6.31640625 3.9375 8.9375 C3.75073342 13.02226589 3.73209111 13.65453853 6.375 17.0625 C8.81348799 18.97813615 8.81348799 18.97813615 11 20 C11.27972656 20.58265625 11.55945313 21.1653125 11.84765625 21.765625 C15.95412648 29.72800117 24.70805942 35.51458864 31.9453125 40.40625 C32.62335938 40.9321875 33.30140625 41.458125 34 42 C34 42.66 34 43.32 34 44 C23.49884995 39.12614785 9.63721652 27.88473128 4.25 17.6875 C2.35336169 14.79429481 2.35336169 14.79429481 -0.109375 14.76171875 C-1.69722857 14.83696018 -3.28456436 14.92411606 -4.87109375 15.0234375 C-7 15 -7 15 -9.5625 13.5 C-11.74510377 9.70416736 -11.55302077 7.35503854 -11 3 C-8.06403859 -0.7580306 -4.50318499 -0.56289812 0 0 Z " fill="#38281C" transform="translate(86,63)"/>
<path d="M0 0 C2.875 1.9375 2.875 1.9375 5 5 C5.0625 7.01953125 5.0625 7.01953125 4.875 9.25 C4.55326291 14.46735825 6.69344408 16.99228715 9.98046875 20.859375 C14.26811782 25.40411714 18.73169345 29.59793832 23.5 33.625 C24.33337891 34.34042969 24.33337891 34.34042969 25.18359375 35.0703125 C27.69636663 37.19877894 30.05652164 39.03327484 32.90625 40.7109375 C33.5971875 41.13632813 34.288125 41.56171875 35 42 C35 42.66 35 43.32 35 44 C28.59432044 41.81860642 24.08176326 37.32307748 19 33 C18.27039063 32.40703125 17.54078125 31.8140625 16.7890625 31.203125 C12.8884393 27.96545357 9.97708503 24.67839231 7 20.5625 C4.55163237 17.13871839 4.55163237 17.13871839 0.89453125 15.50390625 C-1.07393231 15.61839475 -3.03767954 15.80698487 -5 16 C-8 14.5 -8 14.5 -10 12 C-10.64918137 9.19645566 -10.61559954 6.80759417 -10 4 C-7.317936 -0.12625231 -4.78913194 -0.87963648 0 0 Z " fill="#3A291E" transform="translate(54,78)"/>
<path d="M0 0 C3.45747461 1.54022071 6.14307383 3.6045734 9.0625 6 C11.66686965 8.13049187 14.19819406 10.13212937 17 12 C17 12.66 17 13.32 17 14 C13.81350206 12.54434981 11.23712991 10.74189282 8.5 8.5625 C6.26511305 6.79066326 4.05524596 5.03869109 1.71875 3.40234375 C1.1515625 2.93957031 0.584375 2.47679688 0 2 C0 1.34 0 0.68 0 0 Z " fill="#513C22" transform="translate(103,93)"/>
<path d="M0 0 C3.44748958 0.64047398 5.84644185 1.99705019 8.75 3.9375 C9.94882813 4.72447266 9.94882813 4.72447266 11.171875 5.52734375 C12.07679687 6.25630859 12.07679687 6.25630859 13 7 C13 7.66 13 8.32 13 9 C7.97290493 7.42903279 3.97133531 4.38006951 0 1 C0 0.67 0 0.34 0 0 Z " fill="#533E23" transform="translate(76,113)"/>
<path d="M0 0 C4 5 4 5 8 10 C7.01 10 6.02 10 5 10 C3.26776336 8.05651499 1.60118397 6.05279996 0 4 C-0.66 3.34 -1.32 2.68 -2 2 C-1.34 2 -0.68 2 0 2 C0 1.34 0 0.68 0 0 Z " fill="#5E5046" transform="translate(57,90)"/>
</svg>
