<svg width="64" height="50" viewBox="0 0 64 50" fill="none" xmlns="http://www.w3.org/2000/svg">
<path d="M32.5945 17.2618C32.5196 17.1794 32.4282 17.1135 32.3263 17.0684C32.2244 17.0233 32.1142 17 32.0027 17C31.8913 17 31.7811 17.0233 31.6791 17.0684C31.5772 17.1135 31.4859 17.1794 31.4109 17.2618L24.2134 25.2589C24.1072 25.3733 24.0369 25.5163 24.0111 25.6702C23.9852 25.8241 24.0049 25.9822 24.0679 26.125C24.1308 26.2679 24.2341 26.3892 24.3651 26.474C24.4961 26.5588 24.6491 26.6034 24.8052 26.6024H26.4046V32.2003C26.4046 32.4124 26.4889 32.6158 26.6389 32.7658C26.7888 32.9157 26.9923 33 27.2044 33H36.8011C37.0132 33 37.2166 32.9157 37.3666 32.7658C37.5165 32.6158 37.6008 32.4124 37.6008 32.2003V26.6024H39.2003C39.4124 26.6024 39.6158 26.5181 39.7657 26.3681C39.9157 26.2182 40 26.0148 40 25.8027C40.0015 25.6017 39.9272 25.4076 39.792 25.2589L32.5945 17.2618Z" fill="#FFDC2E"/>
</svg>
